<svg version="1" xmlns="http://www.w3.org/2000/svg" width="933.333" height="933.333" viewBox="0 0 700.000000 700.000000"><path d="M384.2 177.6c-11.5 5.6-19.8 18.5-26.8 41.9-1.4 4.4-2.6 8.9-2.9 10-1.9 8.8-5.4 26.9-6 30.9-.3 2.7-.8 5.2-.9 5.5-.2.3-.7 4-1.1 8.1-.4 4.1-.8 7.7-1 8-.1.3-.6 4.1-1 8.4-.4 4.3-.8 8.6-1 9.5-.1.9-.6 5.2-1 9.6-.4 4.4-.9 9.3-1 11-.2 1.6-.6 6.6-1 11s-.8 9.6-1 11.5c-.2 1.9-.6 7.1-1 11.5-.3 4.4-.8 10-1 12.5-.2 2.5-.7 7.9-1 12-.3 4.1-.8 9.1-1 11-.2 1.9-.6 7.3-1 12s-.8 8.7-1 9c-.2.3-.6 4.3-1 9s-.8 8.7-1 9c-.1.3-.6 3.6-1 7.5-.4 3.8-.8 7.2-1 7.5-.1.3-.6 2.7-.9 5.3-2 14.7-6.4 32.2-8.6 34.2-2.3 2.1-7.7 2.3-9.6.3-4.5-4.5-14.3-40.9-19.9-73.8-.3-1.9-.8-4.2-1-5-.3-.8-.7-3.1-.9-5-2.9-21.7-13.2-68.2-18.3-82.5-6.1-17.2-15.1-29.9-24.3-34.5-6-3-15.7-3.1-22.3-.2-10 4.4-19 16-25 31.9-5.7 15-9.4 30.9-16.7 70.9-5.7 31.9-8.5 43.4-13.2 54.6-2.4 5.7-6.2 7.7-10.7 5.8-3.6-1.5-6.1-6.9-13.6-29.2-3.1-9-6-17.2-6.5-18.3-.5-1.1-2.3-5.1-3.9-8.8-6.6-14.8-18.1-28.4-28.7-33.7-5.6-2.8-4.8-2.5-13.8-4.5-5.7-1.3-13.5-1.5-44.7-1.3-36.4.3-37.9.4-40.5 2.4-4.2 3.1-6.3 7.5-6 12.7.3 5.3 2.5 9.1 6.9 11.7 3 1.9 5.3 2 39 2 33.2 0 36.2.1 41.4 2 11.6 4.1 19.1 15.6 28.9 44.5 9.4 27.9 13.2 35.9 21.3 44.9 6.1 6.7 16.2 10.7 26 10.1 18.7-1 30.6-17.3 40-55 1.1-4.4 2.3-9.6 2.6-11.5.3-1.9 1.2-6.7 2-10.5.8-3.9 1.6-8.6 1.9-10.5.3-1.9.7-4.4 1-5.5.2-1.1.7-4 1.1-6.5.9-5.7 1.2-7.2 3-16 .2-1.4.6-3.6.9-5 1.8-10.8 7.9-32.5 10.7-38.1 2.7-5.3 8.1-6.7 11.9-2.9 2.9 2.9 10.7 30.2 14.4 50.2.4 2.3 3.2 17.4 4 21.3.2 1.1.7 4 1.1 6.5 1.4 8.4 4 22 7 37 1.3 6.3 2.6 12.6 2.8 14 2.3 12.3 9.7 35.8 14.7 46.7 9.4 20.3 19.7 29.4 34 29.9 5.5.2 7.2-.1 11-2.3 8.4-4.8 14.4-13.4 20-28.6 3.3-9 8.2-29.7 9.6-40.2.3-2.8.8-5.9 1-7 .2-1.1.7-4 1-6.5.3-2.5.9-7.2 1.4-10.5.5-3.3 1.2-9.2 1.5-13 .3-3.9.8-8.6 1.1-10.5.2-1.9.6-6.4.9-10 .3-3.6.7-9 1-12 1-11.3 1.5-17.7 2-25.5.6-8 .8-10.5 2.1-24.5.3-4.1.8-9.3.9-11.5.2-2.2.5-6.5.9-9.5.3-3 .8-8.4 1.1-12 .5-5.7 1-9.7 3.1-26.5.9-7.6 4.5-28 5.6-32 .6-2.2 1.2-5.3 1.5-6.9.7-4.5 6.2-20.8 7.5-22.4 3.5-4.2 9.6-3.3 12.7 1.9 1.9 3.2 7.6 20 8.5 25.1.3 1.5.7 3.1.9 3.5 1.6 2.7 9.1 53.2 11.1 74.5.3 3.1.7 6.7 1 8 .3 1.3.7 5.3 1.1 9 .3 3.7 1 10.2 1.5 14.5.6 4.3 1.3 9.6 1.6 11.8.8 6.6 2.3 16.2 3 20 .2 1 .6 3.7 1 6 .3 2.2 1.6 8.5 2.9 14 8.1 34 18.7 49.5 34.6 50.1 16.9.7 29.7-8.5 39.9-28.5 4.7-9.5 9.8-25.4 15.6-49.1 6.5-26.3 10.9-41.4 12.7-42.8.6-.6 2.4-1.3 4-1.7 4.6-1.2 7 1.4 12.7 14.2 16.2 36.2 23.5 47.6 36 56 11.7 7.9 16.3 8.6 60.6 8.6 34.8 0 37.4-.1 40.4-1.9 10.2-6 10.4-19.4.4-25.1-3.8-2.2-4.5-2.3-40.5-2.3-40.3 0-40.4 0-47.5-6.2-5.5-4.8-10.4-13-17.4-29-12.6-28.6-18.1-37.7-26.2-43.4-6-4.2-9.1-5.4-15.8-6.1-8.4-.8-16.1 1.8-21.9 7.6-4.3 4.3-9.1 10.4-9.1 11.5 0 .3-1.3 3.3-2.9 6.8-4.1 8.9-6.2 15.9-13.1 43.9-7.7 31.9-12.8 46.7-17.2 50.9-3.9 3.6-10 2.1-12-2.8-4.1-10.6-8.8-34.7-12.3-63.2-.2-1.9-.9-7.3-1.5-12-1.7-13.7-1.9-15.2-2.5-21-.3-3-.8-6.9-1-8.5-1-7.7-1.7-13.3-2-16-.7-5.3-1.6-12.1-2-14.6-.2-1.3-.6-4.5-.9-7-.4-2.5-1.5-9.3-2.6-15.1-6.6-36.2-14.7-57.4-26.5-69.4-10-10.2-22.4-13.1-33.3-7.8z"/></svg>